<?xml version="1.0" standalone="no"?><!DOCTYPE svg PUBLIC "-//W3C//DTD SVG 1.1//EN" "http://www.w3.org/Graphics/SVG/1.1/DTD/svg11.dtd"><svg t="1591968704084" class="icon" viewBox="0 0 1024 1024" version="1.1" xmlns="http://www.w3.org/2000/svg" p-id="7149" xmlns:xlink="http://www.w3.org/1999/xlink" width="32" height="32"><defs><style type="text/css"></style></defs><path d="M512 512m-512 0a512 512 0 1 0 1024 0 512 512 0 1 0-1024 0Z" fill="#cdcdcd" p-id="7150" data-spm-anchor-id="a313x.7781069.0.i16" class=""></path><path d="M387.19488 685.34272a214.80448 214.80448 0 0 1-48.5376-48.5376l-79.02208 13.80352A286.1056 286.1056 0 0 1 235.52 592.44544l65.6384-46.11072a215.11168 215.11168 0 0 1 0-68.66944L235.52 431.55456a286.1056 286.1056 0 0 1 24.1152-58.1632l79.02208 13.80352a214.80448 214.80448 0 0 1 48.5376-48.5376l-13.80352-79.02208A286.1056 286.1056 0 0 1 431.55456 235.52l46.11072 65.6384a215.11168 215.11168 0 0 1 68.66944 0L592.44544 235.52a286.1056 286.1056 0 0 1 58.1632 24.1152l-13.80352 79.02208a214.80448 214.80448 0 0 1 48.5376 48.5376l79.02208-13.80352A286.1056 286.1056 0 0 1 788.48 431.55456l-65.6384 46.11072a215.11168 215.11168 0 0 1 0 68.66944L788.48 592.44544a286.1056 286.1056 0 0 1-24.1152 58.1632l-79.02208-13.80352a214.80448 214.80448 0 0 1-48.5376 48.5376l13.80352 79.02208A286.1056 286.1056 0 0 1 592.44544 788.48l-46.11072-65.6384a215.11168 215.11168 0 0 1-68.66944 0L431.55456 788.48a286.1056 286.1056 0 0 1-58.1632-24.1152l13.80352-79.02208zM512 624.64c62.208 0 112.64-50.432 112.64-112.64s-50.432-112.64-112.64-112.64-112.64 50.432-112.64 112.64 50.432 112.64 112.64 112.64z" fill="#2c2c2c" p-id="7151" data-spm-anchor-id="a313x.7781069.0.i17" class="selected"></path></svg>